# xmcd
#
# Track frame offsets:
#	150
#	9639
#	21046
#	35396
#	46476
#	61468
#	74433
#	85963
#	98497
#	113797
#	126287
#	138587
#	153150
#	166191
#	177909
#	192302
#	204265
#	216955
#	229810
#	242181
#	258039
#	272344
#	283420
#	293650
#	305224
#	318159
#	330606
#
# Disc length: 4602 seconds
#
# Revision: 0
# Processed by: cddbd v1.5.2PL0 Copyright (c) Steve Scherf et al.
# Submitted via: audiograbber 1.83.01
#
DISCID=8511f81b
DTITLE=Dick Curless - Hard, Hard Traveling Man - CD1
DYEAR=2000
DGENRE=Country
TTITLE0=A Pinch O' Powder
TTITLE1=Big Wheel Cannonball 
TTITLE2=I Miss A Lot Of Trains 
TTITLE3=Six Days On The Road 
TTITLE4=A Tombstone Every Mile 
TTITLE5=Carter Boys 
TTITLE6=Hard, Hard Traveling Man 
TTITLE7=Long Lonesome Highway 
TTITLE8=Drop Some Silver In The Jukebox 
TTITLE9=Truck Stop 
TTITLE10=Goin' Down The Road Feeling Bad 
TTITLE11=Winter's Comin' On Again 
TTITLE12=Golden Girl 
TTITLE13=Drag 'Em Off The Interstate, Sock It To 'Em, 
TTITLE14=Please Buy My Flowers 
TTITLE15=Juke Box Man 
TTITLE16=Leaving It All Behind 
TTITLE17=Rocky Top 
TTITLE18=Juke Box Man 
TTITLE19=Watermelon Man 
TTITLE20=The Lonesome Road 
TTITLE21=Coastline Charlie 
TTITLE22=Waiting For A Train 
TTITLE23=Homing Pigeon 
TTITLE24=Come Sundown 
TTITLE25=Snap Your Fingers 
TTITLE26=Swingin' Preacher 
EXTD=
EXTT0=
EXTT1=
EXTT2=
EXTT3=
EXTT4=
EXTT5=
EXTT6=
EXTT7=
EXTT8=
EXTT9=
EXTT10=
EXTT11=
EXTT12=
EXTT13=
EXTT14=
EXTT15=
EXTT16=
EXTT17=
EXTT18=
EXTT19=
EXTT20=
EXTT21=
EXTT22=
EXTT23=
EXTT24=
EXTT25=
EXTT26=
PLAYORDER=
